<mxfile host="Electron" agent="Mozilla/5.0 (Windows NT 10.0; Win64; x64) AppleWebKit/537.36 (KHTML, like Gecko) draw.io/24.7.8 Chrome/128.0.6613.36 Electron/32.0.1 Safari/537.36" version="24.7.8">
  <diagram name="Page-1" id="zdCeZMdV5CWMr6VxnHRw">
    <mxGraphModel dx="1114" dy="1764" grid="1" gridSize="10" guides="1" tooltips="1" connect="1" arrows="1" fold="1" page="1" pageScale="1" pageWidth="850" pageHeight="1100" math="0" shadow="0">
      <root>
        <mxCell id="0" />
        <mxCell id="1" parent="0" />
        <mxCell id="eOgMiYtVknCGbNOxHPJd-1" value="Гость" style="swimlane;startSize=20;horizontal=0;html=1;whiteSpace=wrap;" parent="1" vertex="1">
          <mxGeometry y="-10" width="2070" height="240" as="geometry" />
        </mxCell>
        <mxCell id="eOgMiYtVknCGbNOxHPJd-16" value="" style="edgeStyle=orthogonalEdgeStyle;rounded=0;orthogonalLoop=1;jettySize=auto;html=1;" parent="eOgMiYtVknCGbNOxHPJd-1" source="eOgMiYtVknCGbNOxHPJd-7" target="eOgMiYtVknCGbNOxHPJd-15" edge="1">
          <mxGeometry relative="1" as="geometry" />
        </mxCell>
        <mxCell id="eOgMiYtVknCGbNOxHPJd-7" value="Пришел в&lt;div&gt;ресторан&lt;/div&gt;" style="points=[[0.145,0.145,0],[0.5,0,0],[0.855,0.145,0],[1,0.5,0],[0.855,0.855,0],[0.5,1,0],[0.145,0.855,0],[0,0.5,0]];shape=mxgraph.bpmn.event;html=1;verticalLabelPosition=bottom;labelBackgroundColor=#ffffff;verticalAlign=top;align=center;perimeter=ellipsePerimeter;outlineConnect=0;aspect=fixed;outline=standard;symbol=message;" parent="eOgMiYtVknCGbNOxHPJd-1" vertex="1">
          <mxGeometry x="40" y="95" width="50" height="50" as="geometry" />
        </mxCell>
        <mxCell id="eOgMiYtVknCGbNOxHPJd-20" value="" style="edgeStyle=orthogonalEdgeStyle;rounded=0;orthogonalLoop=1;jettySize=auto;html=1;" parent="eOgMiYtVknCGbNOxHPJd-1" source="eOgMiYtVknCGbNOxHPJd-15" target="eOgMiYtVknCGbNOxHPJd-19" edge="1">
          <mxGeometry relative="1" as="geometry" />
        </mxCell>
        <mxCell id="eOgMiYtVknCGbNOxHPJd-15" value="&lt;div&gt;&lt;br&gt;&lt;/div&gt;&lt;div&gt;Выбрать блюдо&lt;/div&gt;" style="whiteSpace=wrap;html=1;verticalAlign=top;labelBackgroundColor=#ffffff;" parent="eOgMiYtVknCGbNOxHPJd-1" vertex="1">
          <mxGeometry x="135" y="90" width="120" height="60" as="geometry" />
        </mxCell>
        <mxCell id="eOgMiYtVknCGbNOxHPJd-22" value="" style="edgeStyle=orthogonalEdgeStyle;rounded=0;orthogonalLoop=1;jettySize=auto;html=1;" parent="eOgMiYtVknCGbNOxHPJd-1" source="eOgMiYtVknCGbNOxHPJd-19" target="eOgMiYtVknCGbNOxHPJd-21" edge="1">
          <mxGeometry relative="1" as="geometry" />
        </mxCell>
        <mxCell id="eOgMiYtVknCGbNOxHPJd-19" value="Ожидание очереди" style="shape=mxgraph.bpmn.event;html=1;verticalLabelPosition=bottom;labelBackgroundColor=#ffffff;verticalAlign=top;align=center;outlineConnect=0;aspect=fixed;outline=standard;symbol=timer;points=[[0.145,0.145,0],[0.5,0,0],[0.855,0.145,0],[1,0.5,0],[0.855,0.855,0],[0.5,1,0],[0.145,0.855,0],[0,0.5,0]];perimeter=ellipsePerimeter;" parent="eOgMiYtVknCGbNOxHPJd-1" vertex="1">
          <mxGeometry x="300" y="95" width="50" height="50" as="geometry" />
        </mxCell>
        <mxCell id="eOgMiYtVknCGbNOxHPJd-29" style="edgeStyle=orthogonalEdgeStyle;rounded=0;orthogonalLoop=1;jettySize=auto;html=1;entryX=0;entryY=0.5;entryDx=0;entryDy=0;" parent="eOgMiYtVknCGbNOxHPJd-1" source="eOgMiYtVknCGbNOxHPJd-21" target="eOgMiYtVknCGbNOxHPJd-27" edge="1">
          <mxGeometry relative="1" as="geometry" />
        </mxCell>
        <mxCell id="eOgMiYtVknCGbNOxHPJd-21" value="&lt;div&gt;&lt;br&gt;&lt;/div&gt;&lt;div&gt;Сделать заказ&lt;/div&gt;" style="whiteSpace=wrap;html=1;verticalAlign=top;labelBackgroundColor=none;points=[[0.25,0,0],[0.5,0,0],[0.75,0,0],[1,0.25,0],[1,0.5,0],[1,0.75,0],[0.75,1,0],[0.5,1,0],[0.25,1,0],[0,0.75,0],[0,0.5,0],[0,0.25,0]];shape=mxgraph.bpmn.task;rectStyle=rounded;size=10;container=1;expand=0;collapsible=0;taskMarker=send;" parent="eOgMiYtVknCGbNOxHPJd-1" vertex="1">
          <mxGeometry x="395" y="90" width="120" height="60" as="geometry" />
        </mxCell>
        <mxCell id="eOgMiYtVknCGbNOxHPJd-31" value="" style="edgeStyle=orthogonalEdgeStyle;rounded=0;orthogonalLoop=1;jettySize=auto;html=1;" parent="eOgMiYtVknCGbNOxHPJd-1" source="eOgMiYtVknCGbNOxHPJd-27" target="eOgMiYtVknCGbNOxHPJd-30" edge="1">
          <mxGeometry relative="1" as="geometry" />
        </mxCell>
        <mxCell id="eOgMiYtVknCGbNOxHPJd-27" value="&lt;div&gt;&lt;br&gt;&lt;/div&gt;&lt;div&gt;Оплатить заказ&lt;/div&gt;" style="whiteSpace=wrap;html=1;verticalAlign=top;labelBackgroundColor=none;points=[[0.25,0,0],[0.5,0,0],[0.75,0,0],[1,0.25,0],[1,0.5,0],[1,0.75,0],[0.75,1,0],[0.5,1,0],[0.25,1,0],[0,0.75,0],[0,0.5,0],[0,0.25,0]];shape=mxgraph.bpmn.task;rectStyle=rounded;size=10;container=1;expand=0;collapsible=0;taskMarker=send;" parent="eOgMiYtVknCGbNOxHPJd-1" vertex="1">
          <mxGeometry x="550" y="90" width="120" height="60" as="geometry" />
        </mxCell>
        <mxCell id="eOgMiYtVknCGbNOxHPJd-30" value="&lt;div&gt;&lt;br&gt;&lt;/div&gt;&lt;div&gt;Получить бипер&lt;/div&gt;" style="whiteSpace=wrap;html=1;verticalAlign=top;labelBackgroundColor=none;points=[[0.25,0,0],[0.5,0,0],[0.75,0,0],[1,0.25,0],[1,0.5,0],[1,0.75,0],[0.75,1,0],[0.5,1,0],[0.25,1,0],[0,0.75,0],[0,0.5,0],[0,0.25,0]];shape=mxgraph.bpmn.task;rectStyle=rounded;size=10;container=1;expand=0;collapsible=0;taskMarker=receive;" parent="eOgMiYtVknCGbNOxHPJd-1" vertex="1">
          <mxGeometry x="710" y="90" width="120" height="60" as="geometry" />
        </mxCell>
        <mxCell id="eOgMiYtVknCGbNOxHPJd-58" style="edgeStyle=orthogonalEdgeStyle;rounded=0;orthogonalLoop=1;jettySize=auto;html=1;entryX=0.5;entryY=0;entryDx=0;entryDy=0;entryPerimeter=0;dashed=1;dashPattern=8 4;endArrow=blockThin;endFill=1;startArrow=oval;startFill=0;endSize=6;startSize=4;" parent="eOgMiYtVknCGbNOxHPJd-1" source="eOgMiYtVknCGbNOxHPJd-21" target="eOgMiYtVknCGbNOxHPJd-32" edge="1">
          <mxGeometry relative="1" as="geometry">
            <Array as="points">
              <mxPoint x="455" y="280" />
              <mxPoint x="65" y="280" />
            </Array>
          </mxGeometry>
        </mxCell>
        <mxCell id="eOgMiYtVknCGbNOxHPJd-95" value="" style="edgeStyle=orthogonalEdgeStyle;rounded=0;orthogonalLoop=1;jettySize=auto;html=1;" parent="eOgMiYtVknCGbNOxHPJd-1" source="eOgMiYtVknCGbNOxHPJd-91" target="eOgMiYtVknCGbNOxHPJd-94" edge="1">
          <mxGeometry relative="1" as="geometry" />
        </mxCell>
        <mxCell id="eOgMiYtVknCGbNOxHPJd-91" value="Получено сигнал на бипер" style="points=[[0.145,0.145,0],[0.5,0,0],[0.855,0.145,0],[1,0.5,0],[0.855,0.855,0],[0.5,1,0],[0.145,0.855,0],[0,0.5,0]];shape=mxgraph.bpmn.event;html=1;verticalLabelPosition=bottom;labelBackgroundColor=#ffffff;verticalAlign=top;align=center;perimeter=ellipsePerimeter;outlineConnect=0;aspect=fixed;outline=boundInt;symbol=message;" parent="eOgMiYtVknCGbNOxHPJd-1" vertex="1">
          <mxGeometry x="1010" y="95" width="50" height="50" as="geometry" />
        </mxCell>
        <mxCell id="eOgMiYtVknCGbNOxHPJd-92" style="edgeStyle=orthogonalEdgeStyle;rounded=0;orthogonalLoop=1;jettySize=auto;html=1;entryX=0;entryY=0.5;entryDx=0;entryDy=0;entryPerimeter=0;" parent="eOgMiYtVknCGbNOxHPJd-1" source="eOgMiYtVknCGbNOxHPJd-30" target="eOgMiYtVknCGbNOxHPJd-91" edge="1">
          <mxGeometry relative="1" as="geometry" />
        </mxCell>
        <mxCell id="eOgMiYtVknCGbNOxHPJd-97" value="" style="edgeStyle=orthogonalEdgeStyle;rounded=0;orthogonalLoop=1;jettySize=auto;html=1;" parent="eOgMiYtVknCGbNOxHPJd-1" source="eOgMiYtVknCGbNOxHPJd-94" target="eOgMiYtVknCGbNOxHPJd-96" edge="1">
          <mxGeometry relative="1" as="geometry" />
        </mxCell>
        <mxCell id="eOgMiYtVknCGbNOxHPJd-94" value="&lt;div&gt;&lt;br&gt;&lt;/div&gt;Подойти на стойку заказов" style="whiteSpace=wrap;html=1;verticalAlign=top;labelBackgroundColor=none;points=[[0.25,0,0],[0.5,0,0],[0.75,0,0],[1,0.25,0],[1,0.5,0],[1,0.75,0],[0.75,1,0],[0.5,1,0],[0.25,1,0],[0,0.75,0],[0,0.5,0],[0,0.25,0]];shape=mxgraph.bpmn.task;rectStyle=rounded;size=10;container=1;expand=0;collapsible=0;taskMarker=send;" parent="eOgMiYtVknCGbNOxHPJd-1" vertex="1">
          <mxGeometry x="1305" y="90" width="120" height="60" as="geometry" />
        </mxCell>
        <mxCell id="eOgMiYtVknCGbNOxHPJd-96" value="&lt;div&gt;&lt;br&gt;&lt;/div&gt;&lt;div&gt;Забрать заказ&lt;/div&gt;" style="whiteSpace=wrap;html=1;verticalAlign=top;labelBackgroundColor=none;points=[[0.25,0,0],[0.5,0,0],[0.75,0,0],[1,0.25,0],[1,0.5,0],[1,0.75,0],[0.75,1,0],[0.5,1,0],[0.25,1,0],[0,0.75,0],[0,0.5,0],[0,0.25,0]];shape=mxgraph.bpmn.task;rectStyle=rounded;size=10;container=1;expand=0;collapsible=0;taskMarker=receive;" parent="eOgMiYtVknCGbNOxHPJd-1" vertex="1">
          <mxGeometry x="1720" y="90" width="120" height="60" as="geometry" />
        </mxCell>
        <mxCell id="eOgMiYtVknCGbNOxHPJd-102" value="Клиент получил заказ" style="points=[[0.145,0.145,0],[0.5,0,0],[0.855,0.145,0],[1,0.5,0],[0.855,0.855,0],[0.5,1,0],[0.145,0.855,0],[0,0.5,0]];shape=mxgraph.bpmn.event;html=1;verticalLabelPosition=bottom;labelBackgroundColor=#ffffff;verticalAlign=top;align=center;perimeter=ellipsePerimeter;outlineConnect=0;aspect=fixed;outline=end;symbol=terminate2;" parent="eOgMiYtVknCGbNOxHPJd-1" vertex="1">
          <mxGeometry x="1940" y="95" width="50" height="50" as="geometry" />
        </mxCell>
        <mxCell id="eOgMiYtVknCGbNOxHPJd-103" style="edgeStyle=orthogonalEdgeStyle;rounded=0;orthogonalLoop=1;jettySize=auto;html=1;entryX=0;entryY=0.5;entryDx=0;entryDy=0;entryPerimeter=0;" parent="eOgMiYtVknCGbNOxHPJd-1" target="eOgMiYtVknCGbNOxHPJd-102" edge="1">
          <mxGeometry relative="1" as="geometry">
            <mxPoint x="1840" y="120" as="sourcePoint" />
          </mxGeometry>
        </mxCell>
        <mxCell id="eOgMiYtVknCGbNOxHPJd-3" value="Сотрудник" style="swimlane;startSize=20;horizontal=0;html=1;whiteSpace=wrap;" parent="1" vertex="1">
          <mxGeometry y="330" width="2070" height="300" as="geometry" />
        </mxCell>
        <mxCell id="eOgMiYtVknCGbNOxHPJd-32" value="Пришел заказ" style="points=[[0.145,0.145,0],[0.5,0,0],[0.855,0.145,0],[1,0.5,0],[0.855,0.855,0],[0.5,1,0],[0.145,0.855,0],[0,0.5,0]];shape=mxgraph.bpmn.event;html=1;verticalLabelPosition=bottom;labelBackgroundColor=#ffffff;verticalAlign=top;align=center;perimeter=ellipsePerimeter;outlineConnect=0;aspect=fixed;outline=standard;symbol=message;" parent="eOgMiYtVknCGbNOxHPJd-3" vertex="1">
          <mxGeometry x="40" y="95" width="50" height="50" as="geometry" />
        </mxCell>
        <mxCell id="eOgMiYtVknCGbNOxHPJd-34" value="&lt;div&gt;&lt;br&gt;&lt;/div&gt;&lt;div&gt;Ввести заказ в систему&lt;/div&gt;" style="whiteSpace=wrap;html=1;verticalAlign=top;labelBackgroundColor=none;shape=mxgraph.bpmn.task;rectStyle=rounded;size=10;container=1;expand=0;collapsible=0;taskMarker=user;points=[[0.25,0,0],[0.5,0,0],[0.75,0,0],[1,0.25,0],[1,0.5,0],[1,0.75,0],[0.75,1,0],[0.5,1,0],[0.25,1,0],[0,0.75,0],[0,0.5,0],[0,0.25,0]];" parent="eOgMiYtVknCGbNOxHPJd-3" vertex="1">
          <mxGeometry x="135" y="90" width="120" height="60" as="geometry" />
        </mxCell>
        <mxCell id="eOgMiYtVknCGbNOxHPJd-35" value="&lt;br&gt;Уведомить о стоимости заказа" style="whiteSpace=wrap;html=1;verticalAlign=top;labelBackgroundColor=none;points=[[0.25,0,0],[0.5,0,0],[0.75,0,0],[1,0.25,0],[1,0.5,0],[1,0.75,0],[0.75,1,0],[0.5,1,0],[0.25,1,0],[0,0.75,0],[0,0.5,0],[0,0.25,0]];shape=mxgraph.bpmn.task;rectStyle=rounded;size=10;container=1;expand=0;collapsible=0;taskMarker=send;" parent="eOgMiYtVknCGbNOxHPJd-3" vertex="1">
          <mxGeometry x="290" y="90" width="120" height="60" as="geometry" />
        </mxCell>
        <mxCell id="eOgMiYtVknCGbNOxHPJd-36" style="edgeStyle=orthogonalEdgeStyle;rounded=0;orthogonalLoop=1;jettySize=auto;html=1;entryX=0;entryY=0.5;entryDx=0;entryDy=0;entryPerimeter=0;" parent="eOgMiYtVknCGbNOxHPJd-3" source="eOgMiYtVknCGbNOxHPJd-32" target="eOgMiYtVknCGbNOxHPJd-34" edge="1">
          <mxGeometry relative="1" as="geometry" />
        </mxCell>
        <mxCell id="eOgMiYtVknCGbNOxHPJd-37" style="edgeStyle=orthogonalEdgeStyle;rounded=0;orthogonalLoop=1;jettySize=auto;html=1;entryX=0;entryY=0.5;entryDx=0;entryDy=0;entryPerimeter=0;" parent="eOgMiYtVknCGbNOxHPJd-3" source="eOgMiYtVknCGbNOxHPJd-34" target="eOgMiYtVknCGbNOxHPJd-35" edge="1">
          <mxGeometry relative="1" as="geometry" />
        </mxCell>
        <mxCell id="eOgMiYtVknCGbNOxHPJd-38" value="Принята оплата заказа" style="points=[[0.145,0.145,0],[0.5,0,0],[0.855,0.145,0],[1,0.5,0],[0.855,0.855,0],[0.5,1,0],[0.145,0.855,0],[0,0.5,0]];shape=mxgraph.bpmn.event;html=1;verticalLabelPosition=bottom;labelBackgroundColor=#ffffff;verticalAlign=top;align=center;perimeter=ellipsePerimeter;outlineConnect=0;aspect=fixed;outline=boundInt;symbol=message;" parent="eOgMiYtVknCGbNOxHPJd-3" vertex="1">
          <mxGeometry x="460" y="95" width="50" height="50" as="geometry" />
        </mxCell>
        <mxCell id="eOgMiYtVknCGbNOxHPJd-39" value="" style="edgeStyle=orthogonalEdgeStyle;rounded=0;orthogonalLoop=1;jettySize=auto;html=1;" parent="eOgMiYtVknCGbNOxHPJd-3" target="eOgMiYtVknCGbNOxHPJd-41" edge="1">
          <mxGeometry relative="1" as="geometry">
            <mxPoint x="510" y="120" as="sourcePoint" />
          </mxGeometry>
        </mxCell>
        <mxCell id="eOgMiYtVknCGbNOxHPJd-40" style="edgeStyle=orthogonalEdgeStyle;rounded=0;orthogonalLoop=1;jettySize=auto;html=1;entryX=0;entryY=0.5;entryDx=0;entryDy=0;" parent="eOgMiYtVknCGbNOxHPJd-3" source="eOgMiYtVknCGbNOxHPJd-41" target="eOgMiYtVknCGbNOxHPJd-43" edge="1">
          <mxGeometry relative="1" as="geometry" />
        </mxCell>
        <mxCell id="eOgMiYtVknCGbNOxHPJd-41" value="&lt;div&gt;&lt;br&gt;&lt;/div&gt;&lt;div&gt;Настроить и передать бипер&lt;/div&gt;" style="whiteSpace=wrap;html=1;verticalAlign=top;labelBackgroundColor=none;points=[[0.25,0,0],[0.5,0,0],[0.75,0,0],[1,0.25,0],[1,0.5,0],[1,0.75,0],[0.75,1,0],[0.5,1,0],[0.25,1,0],[0,0.75,0],[0,0.5,0],[0,0.25,0]];shape=mxgraph.bpmn.task;rectStyle=rounded;size=10;container=1;expand=0;collapsible=0;taskMarker=send;" parent="eOgMiYtVknCGbNOxHPJd-3" vertex="1">
          <mxGeometry x="555" y="90" width="120" height="60" as="geometry" />
        </mxCell>
        <mxCell id="eOgMiYtVknCGbNOxHPJd-42" value="" style="edgeStyle=orthogonalEdgeStyle;rounded=0;orthogonalLoop=1;jettySize=auto;html=1;entryX=0;entryY=0.5;entryDx=0;entryDy=0;entryPerimeter=0;" parent="eOgMiYtVknCGbNOxHPJd-3" source="eOgMiYtVknCGbNOxHPJd-43" target="eOgMiYtVknCGbNOxHPJd-56" edge="1">
          <mxGeometry relative="1" as="geometry">
            <mxPoint x="870" y="120" as="targetPoint" />
          </mxGeometry>
        </mxCell>
        <mxCell id="eOgMiYtVknCGbNOxHPJd-43" value="&lt;br&gt;&lt;div&gt;Передать заказ на кухню&lt;/div&gt;" style="whiteSpace=wrap;html=1;verticalAlign=top;labelBackgroundColor=none;points=[[0.25,0,0],[0.5,0,0],[0.75,0,0],[1,0.25,0],[1,0.5,0],[1,0.75,0],[0.75,1,0],[0.5,1,0],[0.25,1,0],[0,0.75,0],[0,0.5,0],[0,0.25,0]];shape=mxgraph.bpmn.task;rectStyle=rounded;size=10;container=1;expand=0;collapsible=0;taskMarker=send;" parent="eOgMiYtVknCGbNOxHPJd-3" vertex="1">
          <mxGeometry x="710" y="90" width="120" height="60" as="geometry" />
        </mxCell>
        <mxCell id="eOgMiYtVknCGbNOxHPJd-44" style="edgeStyle=orthogonalEdgeStyle;rounded=0;orthogonalLoop=1;jettySize=auto;html=1;entryX=0;entryY=0.5;entryDx=0;entryDy=0;entryPerimeter=0;" parent="eOgMiYtVknCGbNOxHPJd-3" source="eOgMiYtVknCGbNOxHPJd-35" target="eOgMiYtVknCGbNOxHPJd-38" edge="1">
          <mxGeometry relative="1" as="geometry" />
        </mxCell>
        <mxCell id="eOgMiYtVknCGbNOxHPJd-65" value="" style="edgeStyle=orthogonalEdgeStyle;rounded=0;orthogonalLoop=1;jettySize=auto;html=1;" parent="eOgMiYtVknCGbNOxHPJd-3" source="eOgMiYtVknCGbNOxHPJd-56" target="eOgMiYtVknCGbNOxHPJd-64" edge="1">
          <mxGeometry relative="1" as="geometry" />
        </mxCell>
        <mxCell id="eOgMiYtVknCGbNOxHPJd-56" value="Блюдо готово" style="points=[[0.145,0.145,0],[0.5,0,0],[0.855,0.145,0],[1,0.5,0],[0.855,0.855,0],[0.5,1,0],[0.145,0.855,0],[0,0.5,0]];shape=mxgraph.bpmn.event;html=1;verticalLabelPosition=bottom;labelBackgroundColor=#ffffff;verticalAlign=top;align=center;perimeter=ellipsePerimeter;outlineConnect=0;aspect=fixed;outline=boundInt;symbol=message;" parent="eOgMiYtVknCGbNOxHPJd-3" vertex="1">
          <mxGeometry x="880" y="95" width="50" height="50" as="geometry" />
        </mxCell>
        <mxCell id="eOgMiYtVknCGbNOxHPJd-64" value="&lt;div&gt;&lt;br&gt;&lt;/div&gt;&lt;div&gt;Сообщить о готовности клиенту&lt;/div&gt;" style="whiteSpace=wrap;html=1;verticalAlign=top;labelBackgroundColor=none;points=[[0.25,0,0],[0.5,0,0],[0.75,0,0],[1,0.25,0],[1,0.5,0],[1,0.75,0],[0.75,1,0],[0.5,1,0],[0.25,1,0],[0,0.75,0],[0,0.5,0],[0,0.25,0]];shape=mxgraph.bpmn.task;rectStyle=rounded;size=10;container=1;expand=0;collapsible=0;taskMarker=send;" parent="eOgMiYtVknCGbNOxHPJd-3" vertex="1">
          <mxGeometry x="975" y="90" width="120" height="60" as="geometry" />
        </mxCell>
        <mxCell id="eOgMiYtVknCGbNOxHPJd-66" value="" style="shape=mxgraph.bpmn.gateway2;html=1;verticalLabelPosition=bottom;labelBackgroundColor=#ffffff;verticalAlign=top;align=center;outlineConnect=0;outline=none;symbol=none;points=[[0.25,0.25,0],[0.5,0,0],[0.75,0.25,0],[1,0.5,0],[0.75,0.75,0],[0.5,1,0],[0.25,0.75,0],[0,0.5,0]];perimeter=rhombusPerimeter;gwType=exclusive;" parent="eOgMiYtVknCGbNOxHPJd-3" vertex="1">
          <mxGeometry x="1140" y="95" width="50" height="50" as="geometry" />
        </mxCell>
        <mxCell id="eOgMiYtVknCGbNOxHPJd-67" value="Гость подошел?" style="points=[[0.25,0.25,0],[0.5,0,0],[0.75,0.25,0],[1,0.5,0],[0.75,0.75,0],[0.5,1,0],[0.25,0.75,0],[0,0.5,0]];shape=mxgraph.bpmn.gateway2;html=1;verticalLabelPosition=bottom;labelBackgroundColor=#ffffff;verticalAlign=top;align=center;perimeter=rhombusPerimeter;outlineConnect=0;outline=catching;symbol=multiple;" parent="eOgMiYtVknCGbNOxHPJd-3" vertex="1">
          <mxGeometry x="1230" y="95" width="50" height="50" as="geometry" />
        </mxCell>
        <mxCell id="eOgMiYtVknCGbNOxHPJd-68" value="Подошел" style="points=[[0.145,0.145,0],[0.5,0,0],[0.855,0.145,0],[1,0.5,0],[0.855,0.855,0],[0.5,1,0],[0.145,0.855,0],[0,0.5,0]];shape=mxgraph.bpmn.event;html=1;verticalLabelPosition=bottom;labelBackgroundColor=#ffffff;verticalAlign=top;align=center;perimeter=ellipsePerimeter;outlineConnect=0;aspect=fixed;outline=boundInt;symbol=message;" parent="eOgMiYtVknCGbNOxHPJd-3" vertex="1">
          <mxGeometry x="1340" y="20" width="50" height="50" as="geometry" />
        </mxCell>
        <mxCell id="eOgMiYtVknCGbNOxHPJd-75" value="" style="edgeStyle=orthogonalEdgeStyle;rounded=0;orthogonalLoop=1;jettySize=auto;html=1;" parent="eOgMiYtVknCGbNOxHPJd-3" source="eOgMiYtVknCGbNOxHPJd-69" target="eOgMiYtVknCGbNOxHPJd-74" edge="1">
          <mxGeometry relative="1" as="geometry" />
        </mxCell>
        <mxCell id="eOgMiYtVknCGbNOxHPJd-69" value="Прошло 5 минут" style="points=[[0.145,0.145,0],[0.5,0,0],[0.855,0.145,0],[1,0.5,0],[0.855,0.855,0],[0.5,1,0],[0.145,0.855,0],[0,0.5,0]];shape=mxgraph.bpmn.event;html=1;verticalLabelPosition=bottom;labelBackgroundColor=#ffffff;verticalAlign=top;align=center;perimeter=ellipsePerimeter;outlineConnect=0;aspect=fixed;outline=standard;symbol=timer;" parent="eOgMiYtVknCGbNOxHPJd-3" vertex="1">
          <mxGeometry x="1340" y="170" width="50" height="50" as="geometry" />
        </mxCell>
        <mxCell id="eOgMiYtVknCGbNOxHPJd-70" style="edgeStyle=orthogonalEdgeStyle;rounded=0;orthogonalLoop=1;jettySize=auto;html=1;entryX=0;entryY=0.5;entryDx=0;entryDy=0;entryPerimeter=0;" parent="eOgMiYtVknCGbNOxHPJd-3" source="eOgMiYtVknCGbNOxHPJd-64" target="eOgMiYtVknCGbNOxHPJd-66" edge="1">
          <mxGeometry relative="1" as="geometry" />
        </mxCell>
        <mxCell id="eOgMiYtVknCGbNOxHPJd-71" style="edgeStyle=orthogonalEdgeStyle;rounded=0;orthogonalLoop=1;jettySize=auto;html=1;entryX=0;entryY=0.5;entryDx=0;entryDy=0;entryPerimeter=0;" parent="eOgMiYtVknCGbNOxHPJd-3" source="eOgMiYtVknCGbNOxHPJd-66" target="eOgMiYtVknCGbNOxHPJd-67" edge="1">
          <mxGeometry relative="1" as="geometry" />
        </mxCell>
        <mxCell id="eOgMiYtVknCGbNOxHPJd-72" style="edgeStyle=orthogonalEdgeStyle;rounded=0;orthogonalLoop=1;jettySize=auto;html=1;entryX=0;entryY=0.5;entryDx=0;entryDy=0;entryPerimeter=0;" parent="eOgMiYtVknCGbNOxHPJd-3" source="eOgMiYtVknCGbNOxHPJd-67" target="eOgMiYtVknCGbNOxHPJd-68" edge="1">
          <mxGeometry relative="1" as="geometry" />
        </mxCell>
        <mxCell id="eOgMiYtVknCGbNOxHPJd-73" style="edgeStyle=orthogonalEdgeStyle;rounded=0;orthogonalLoop=1;jettySize=auto;html=1;entryX=0;entryY=0.5;entryDx=0;entryDy=0;entryPerimeter=0;" parent="eOgMiYtVknCGbNOxHPJd-3" source="eOgMiYtVknCGbNOxHPJd-67" target="eOgMiYtVknCGbNOxHPJd-69" edge="1">
          <mxGeometry relative="1" as="geometry" />
        </mxCell>
        <mxCell id="eOgMiYtVknCGbNOxHPJd-90" style="edgeStyle=orthogonalEdgeStyle;rounded=0;orthogonalLoop=1;jettySize=auto;html=1;dashed=1;dashPattern=8 4;endArrow=blockThin;endFill=1;startArrow=oval;startFill=0;endSize=6;startSize=4;" parent="eOgMiYtVknCGbNOxHPJd-3" source="eOgMiYtVknCGbNOxHPJd-74" edge="1">
          <mxGeometry relative="1" as="geometry">
            <mxPoint x="1495" y="-100" as="targetPoint" />
          </mxGeometry>
        </mxCell>
        <mxCell id="eOgMiYtVknCGbNOxHPJd-74" value="&lt;div&gt;&lt;br&gt;&lt;/div&gt;Вызвать гостя по системе оповещения" style="whiteSpace=wrap;html=1;verticalAlign=top;labelBackgroundColor=none;points=[[0.25,0,0],[0.5,0,0],[0.75,0,0],[1,0.25,0],[1,0.5,0],[1,0.75,0],[0.75,1,0],[0.5,1,0],[0.25,1,0],[0,0.75,0],[0,0.5,0],[0,0.25,0]];shape=mxgraph.bpmn.task;rectStyle=rounded;size=10;container=1;expand=0;collapsible=0;taskMarker=send;" parent="eOgMiYtVknCGbNOxHPJd-3" vertex="1">
          <mxGeometry x="1435" y="165" width="120" height="60" as="geometry" />
        </mxCell>
        <mxCell id="eOgMiYtVknCGbNOxHPJd-85" value="" style="edgeStyle=orthogonalEdgeStyle;rounded=0;orthogonalLoop=1;jettySize=auto;html=1;" parent="eOgMiYtVknCGbNOxHPJd-3" source="eOgMiYtVknCGbNOxHPJd-76" target="eOgMiYtVknCGbNOxHPJd-84" edge="1">
          <mxGeometry relative="1" as="geometry" />
        </mxCell>
        <mxCell id="eOgMiYtVknCGbNOxHPJd-76" value="" style="shape=mxgraph.bpmn.gateway2;html=1;verticalLabelPosition=bottom;labelBackgroundColor=#ffffff;verticalAlign=top;align=center;outlineConnect=0;outline=none;symbol=none;points=[[0.25,0.25,0],[0.5,0,0],[0.75,0.25,0],[1,0.5,0],[0.75,0.75,0],[0.5,1,0],[0.25,0.75,0],[0,0.5,0]];perimeter=rhombusPerimeter;gwType=exclusive;" parent="eOgMiYtVknCGbNOxHPJd-3" vertex="1">
          <mxGeometry x="1625" y="20" width="50" height="50" as="geometry" />
        </mxCell>
        <mxCell id="eOgMiYtVknCGbNOxHPJd-77" style="edgeStyle=orthogonalEdgeStyle;rounded=0;orthogonalLoop=1;jettySize=auto;html=1;entryX=0;entryY=0.5;entryDx=0;entryDy=0;entryPerimeter=0;exitX=1;exitY=0.5;exitDx=0;exitDy=0;exitPerimeter=0;" parent="eOgMiYtVknCGbNOxHPJd-3" source="eOgMiYtVknCGbNOxHPJd-68" target="eOgMiYtVknCGbNOxHPJd-76" edge="1">
          <mxGeometry relative="1" as="geometry">
            <mxPoint x="1580" y="45" as="sourcePoint" />
          </mxGeometry>
        </mxCell>
        <mxCell id="eOgMiYtVknCGbNOxHPJd-79" value="" style="shape=mxgraph.bpmn.gateway2;html=1;verticalLabelPosition=bottom;labelBackgroundColor=#ffffff;verticalAlign=top;align=center;outlineConnect=0;outline=none;symbol=none;points=[[0.25,0.25,0],[0.5,0,0],[0.75,0.25,0],[1,0.5,0],[0.75,0.75,0],[0.5,1,0],[0.25,0.75,0],[0,0.5,0]];perimeter=rhombusPerimeter;gwType=exclusive;" parent="eOgMiYtVknCGbNOxHPJd-3" vertex="1">
          <mxGeometry x="1625" y="170" width="50" height="50" as="geometry" />
        </mxCell>
        <mxCell id="eOgMiYtVknCGbNOxHPJd-80" style="edgeStyle=orthogonalEdgeStyle;rounded=0;orthogonalLoop=1;jettySize=auto;html=1;entryX=0;entryY=0.5;entryDx=0;entryDy=0;entryPerimeter=0;exitX=1;exitY=0.5;exitDx=0;exitDy=0;" parent="eOgMiYtVknCGbNOxHPJd-3" source="eOgMiYtVknCGbNOxHPJd-74" target="eOgMiYtVknCGbNOxHPJd-79" edge="1">
          <mxGeometry relative="1" as="geometry">
            <mxPoint x="1580" y="190" as="sourcePoint" />
          </mxGeometry>
        </mxCell>
        <mxCell id="eOgMiYtVknCGbNOxHPJd-83" style="edgeStyle=orthogonalEdgeStyle;rounded=0;orthogonalLoop=1;jettySize=auto;html=1;entryX=0.5;entryY=1;entryDx=0;entryDy=0;entryPerimeter=0;" parent="eOgMiYtVknCGbNOxHPJd-3" source="eOgMiYtVknCGbNOxHPJd-79" target="eOgMiYtVknCGbNOxHPJd-66" edge="1">
          <mxGeometry relative="1" as="geometry">
            <Array as="points">
              <mxPoint x="1650" y="260" />
              <mxPoint x="1165" y="260" />
            </Array>
          </mxGeometry>
        </mxCell>
        <mxCell id="eOgMiYtVknCGbNOxHPJd-84" value="&lt;div&gt;&lt;br&gt;&lt;/div&gt;Передать заказ" style="whiteSpace=wrap;html=1;verticalAlign=top;labelBackgroundColor=none;points=[[0.25,0,0],[0.5,0,0],[0.75,0,0],[1,0.25,0],[1,0.5,0],[1,0.75,0],[0.75,1,0],[0.5,1,0],[0.25,1,0],[0,0.75,0],[0,0.5,0],[0,0.25,0]];shape=mxgraph.bpmn.task;rectStyle=rounded;size=10;container=1;expand=0;collapsible=0;taskMarker=send;" parent="eOgMiYtVknCGbNOxHPJd-3" vertex="1">
          <mxGeometry x="1720" y="15" width="120" height="60" as="geometry" />
        </mxCell>
        <mxCell id="eOgMiYtVknCGbNOxHPJd-88" value="Заказ завершен" style="points=[[0.145,0.145,0],[0.5,0,0],[0.855,0.145,0],[1,0.5,0],[0.855,0.855,0],[0.5,1,0],[0.145,0.855,0],[0,0.5,0]];shape=mxgraph.bpmn.event;html=1;verticalLabelPosition=bottom;labelBackgroundColor=#ffffff;verticalAlign=top;align=center;perimeter=ellipsePerimeter;outlineConnect=0;aspect=fixed;outline=end;symbol=terminate2;" parent="eOgMiYtVknCGbNOxHPJd-3" vertex="1">
          <mxGeometry x="1940" y="20" width="50" height="50" as="geometry" />
        </mxCell>
        <mxCell id="eOgMiYtVknCGbNOxHPJd-89" style="edgeStyle=orthogonalEdgeStyle;rounded=0;orthogonalLoop=1;jettySize=auto;html=1;entryX=0;entryY=0.5;entryDx=0;entryDy=0;entryPerimeter=0;" parent="eOgMiYtVknCGbNOxHPJd-3" source="eOgMiYtVknCGbNOxHPJd-84" target="eOgMiYtVknCGbNOxHPJd-88" edge="1">
          <mxGeometry relative="1" as="geometry" />
        </mxCell>
        <mxCell id="eOgMiYtVknCGbNOxHPJd-4" value="Повар" style="swimlane;startSize=20;horizontal=0;html=1;whiteSpace=wrap;" parent="1" vertex="1">
          <mxGeometry y="720" width="1880" height="230" as="geometry" />
        </mxCell>
        <mxCell id="eOgMiYtVknCGbNOxHPJd-49" value="Пришел заказ" style="points=[[0.145,0.145,0],[0.5,0,0],[0.855,0.145,0],[1,0.5,0],[0.855,0.855,0],[0.5,1,0],[0.145,0.855,0],[0,0.5,0]];shape=mxgraph.bpmn.event;html=1;verticalLabelPosition=bottom;labelBackgroundColor=#ffffff;verticalAlign=top;align=center;perimeter=ellipsePerimeter;outlineConnect=0;aspect=fixed;outline=standard;symbol=message;" parent="eOgMiYtVknCGbNOxHPJd-4" vertex="1">
          <mxGeometry x="40" y="90" width="50" height="50" as="geometry" />
        </mxCell>
        <mxCell id="eOgMiYtVknCGbNOxHPJd-50" value="&lt;div&gt;&lt;br&gt;&lt;/div&gt;&lt;div&gt;Приготовить блюдо&lt;/div&gt;" style="whiteSpace=wrap;html=1;verticalAlign=top;labelBackgroundColor=none;shape=mxgraph.bpmn.task;rectStyle=rounded;size=10;container=1;expand=0;collapsible=0;taskMarker=manual;points=[[0.25,0,0],[0.5,0,0],[0.75,0,0],[1,0.25,0],[1,0.5,0],[1,0.75,0],[0.75,1,0],[0.5,1,0],[0.25,1,0],[0,0.75,0],[0,0.5,0],[0,0.25,0]];" parent="eOgMiYtVknCGbNOxHPJd-4" vertex="1">
          <mxGeometry x="280" y="85" width="120" height="60" as="geometry" />
        </mxCell>
        <mxCell id="eOgMiYtVknCGbNOxHPJd-55" style="edgeStyle=orthogonalEdgeStyle;rounded=0;orthogonalLoop=1;jettySize=auto;html=1;" parent="eOgMiYtVknCGbNOxHPJd-4" source="eOgMiYtVknCGbNOxHPJd-51" target="eOgMiYtVknCGbNOxHPJd-54" edge="1">
          <mxGeometry relative="1" as="geometry" />
        </mxCell>
        <mxCell id="eOgMiYtVknCGbNOxHPJd-51" value="Поставить блюдо на сервировочную полку" style="whiteSpace=wrap;html=1;verticalAlign=top;labelBackgroundColor=none;shape=mxgraph.bpmn.task;rectStyle=rounded;size=10;container=1;expand=0;collapsible=0;taskMarker=abstract;points=[[0.25,0,0],[0.5,0,0],[0.75,0,0],[1,0.25,0],[1,0.5,0],[1,0.75,0],[0.75,1,0],[0.5,1,0],[0.25,1,0],[0,0.75,0],[0,0.5,0],[0,0.25,0]];" parent="eOgMiYtVknCGbNOxHPJd-4" vertex="1">
          <mxGeometry x="550" y="85" width="120" height="60" as="geometry" />
        </mxCell>
        <mxCell id="eOgMiYtVknCGbNOxHPJd-52" style="edgeStyle=orthogonalEdgeStyle;rounded=0;orthogonalLoop=1;jettySize=auto;html=1;entryX=0;entryY=0.5;entryDx=0;entryDy=0;entryPerimeter=0;" parent="eOgMiYtVknCGbNOxHPJd-4" source="eOgMiYtVknCGbNOxHPJd-49" target="eOgMiYtVknCGbNOxHPJd-50" edge="1">
          <mxGeometry relative="1" as="geometry" />
        </mxCell>
        <mxCell id="eOgMiYtVknCGbNOxHPJd-53" style="edgeStyle=orthogonalEdgeStyle;rounded=0;orthogonalLoop=1;jettySize=auto;html=1;entryX=0;entryY=0.5;entryDx=0;entryDy=0;entryPerimeter=0;" parent="eOgMiYtVknCGbNOxHPJd-4" source="eOgMiYtVknCGbNOxHPJd-50" target="eOgMiYtVknCGbNOxHPJd-51" edge="1">
          <mxGeometry relative="1" as="geometry" />
        </mxCell>
        <mxCell id="eOgMiYtVknCGbNOxHPJd-54" value="Сообщить о готовности заказа" style="points=[[0.145,0.145,0],[0.5,0,0],[0.855,0.145,0],[1,0.5,0],[0.855,0.855,0],[0.5,1,0],[0.145,0.855,0],[0,0.5,0]];shape=mxgraph.bpmn.event;html=1;verticalLabelPosition=bottom;labelBackgroundColor=#ffffff;verticalAlign=top;align=center;perimeter=ellipsePerimeter;outlineConnect=0;aspect=fixed;outline=end;symbol=message;" parent="eOgMiYtVknCGbNOxHPJd-4" vertex="1">
          <mxGeometry x="880" y="90" width="50" height="50" as="geometry" />
        </mxCell>
        <mxCell id="eOgMiYtVknCGbNOxHPJd-59" style="edgeStyle=orthogonalEdgeStyle;rounded=0;orthogonalLoop=1;jettySize=auto;html=1;dashed=1;dashPattern=8 4;endArrow=blockThin;endFill=1;startArrow=oval;startFill=0;endSize=6;startSize=4;" parent="1" source="eOgMiYtVknCGbNOxHPJd-35" target="eOgMiYtVknCGbNOxHPJd-27" edge="1">
          <mxGeometry relative="1" as="geometry">
            <Array as="points">
              <mxPoint x="350" y="350" />
              <mxPoint x="589" y="350" />
            </Array>
          </mxGeometry>
        </mxCell>
        <mxCell id="eOgMiYtVknCGbNOxHPJd-60" style="edgeStyle=orthogonalEdgeStyle;rounded=0;orthogonalLoop=1;jettySize=auto;html=1;dashed=1;dashPattern=8 4;endArrow=blockThin;endFill=1;startArrow=oval;startFill=0;endSize=6;startSize=4;" parent="1" source="eOgMiYtVknCGbNOxHPJd-27" target="eOgMiYtVknCGbNOxHPJd-38" edge="1">
          <mxGeometry relative="1" as="geometry">
            <Array as="points">
              <mxPoint x="610" y="370" />
              <mxPoint x="485" y="370" />
            </Array>
          </mxGeometry>
        </mxCell>
        <mxCell id="eOgMiYtVknCGbNOxHPJd-61" style="edgeStyle=orthogonalEdgeStyle;rounded=0;orthogonalLoop=1;jettySize=auto;html=1;entryX=0.5;entryY=1;entryDx=0;entryDy=0;entryPerimeter=0;dashed=1;dashPattern=8 4;endArrow=blockThin;endFill=1;startArrow=oval;startFill=0;endSize=6;startSize=4;" parent="1" source="eOgMiYtVknCGbNOxHPJd-41" target="eOgMiYtVknCGbNOxHPJd-30" edge="1">
          <mxGeometry relative="1" as="geometry">
            <Array as="points">
              <mxPoint x="615" y="380" />
              <mxPoint x="770" y="380" />
            </Array>
          </mxGeometry>
        </mxCell>
        <mxCell id="eOgMiYtVknCGbNOxHPJd-62" style="edgeStyle=orthogonalEdgeStyle;rounded=0;orthogonalLoop=1;jettySize=auto;html=1;entryX=0.5;entryY=0;entryDx=0;entryDy=0;entryPerimeter=0;dashed=1;dashPattern=8 4;endArrow=blockThin;endFill=1;startArrow=oval;startFill=0;endSize=6;startSize=4;" parent="1" source="eOgMiYtVknCGbNOxHPJd-43" target="eOgMiYtVknCGbNOxHPJd-49" edge="1">
          <mxGeometry relative="1" as="geometry">
            <Array as="points">
              <mxPoint x="770" y="590" />
              <mxPoint x="65" y="590" />
            </Array>
          </mxGeometry>
        </mxCell>
        <mxCell id="eOgMiYtVknCGbNOxHPJd-63" style="edgeStyle=orthogonalEdgeStyle;rounded=0;orthogonalLoop=1;jettySize=auto;html=1;entryX=0.5;entryY=1;entryDx=0;entryDy=0;entryPerimeter=0;dashed=1;dashPattern=8 4;endArrow=blockThin;endFill=1;startArrow=oval;startFill=0;endSize=6;startSize=4;" parent="1" source="eOgMiYtVknCGbNOxHPJd-54" target="eOgMiYtVknCGbNOxHPJd-56" edge="1">
          <mxGeometry relative="1" as="geometry" />
        </mxCell>
        <mxCell id="eOgMiYtVknCGbNOxHPJd-93" style="edgeStyle=orthogonalEdgeStyle;rounded=0;orthogonalLoop=1;jettySize=auto;html=1;entryX=0.5;entryY=1;entryDx=0;entryDy=0;entryPerimeter=0;dashed=1;dashPattern=8 4;endArrow=blockThin;endFill=1;startArrow=oval;startFill=0;endSize=6;startSize=4;" parent="1" source="eOgMiYtVknCGbNOxHPJd-64" target="eOgMiYtVknCGbNOxHPJd-91" edge="1">
          <mxGeometry relative="1" as="geometry" />
        </mxCell>
        <mxCell id="eOgMiYtVknCGbNOxHPJd-98" style="edgeStyle=orthogonalEdgeStyle;rounded=0;orthogonalLoop=1;jettySize=auto;html=1;entryX=0.5;entryY=0;entryDx=0;entryDy=0;entryPerimeter=0;dashed=1;dashPattern=8 4;endArrow=blockThin;endFill=1;startArrow=oval;startFill=0;endSize=6;startSize=4;" parent="1" source="eOgMiYtVknCGbNOxHPJd-94" target="eOgMiYtVknCGbNOxHPJd-68" edge="1">
          <mxGeometry relative="1" as="geometry" />
        </mxCell>
        <mxCell id="eOgMiYtVknCGbNOxHPJd-99" style="edgeStyle=orthogonalEdgeStyle;rounded=0;orthogonalLoop=1;jettySize=auto;html=1;entryX=0.5;entryY=1;entryDx=0;entryDy=0;entryPerimeter=0;dashed=1;dashPattern=8 4;endArrow=blockThin;endFill=1;startArrow=oval;startFill=0;endSize=6;startSize=4;" parent="1" source="eOgMiYtVknCGbNOxHPJd-84" target="eOgMiYtVknCGbNOxHPJd-96" edge="1">
          <mxGeometry relative="1" as="geometry" />
        </mxCell>
      </root>
    </mxGraphModel>
  </diagram>
</mxfile>
